<?xml version="1.0" encoding="UTF-8" standalone="no"?>
<svg width="24px" height="24px" viewBox="0 0 24 24" version="1.1" xmlns="http://www.w3.org/2000/svg" xmlns:xlink="http://www.w3.org/1999/xlink">
    <!-- Generator: Sketch 48.2 (47327) - http://www.bohemiancoding.com/sketch -->
    <title>Group 6</title>
    <desc>Created with Sketch.</desc>
    <defs></defs>
    <g id="Page-1" stroke="none" stroke-width="1" fill="none" fill-rule="evenodd">
        <g id="Group-6" transform="translate(-6.000000, -6.000000)" fill="#000000" fill-rule="nonzero">
            <path d="M22.0476402,14.9604351 L28.4782845,8.54909623 L28.4589791,12.1795983 C28.4589791,12.4885858 28.6907197,12.7396318 28.999682,12.7396318 L29.3859163,12.7396318 C29.6949038,12.7396318 29.9459498,12.5465272 29.9459498,12.2568452 L29.9652552,6.84969038 L29.9652552,6.56003347 C29.9652552,6.40553975 29.9266444,6.27037657 29.8300669,6.17379916 C29.7334895,6.07722176 29.5983264,6.01930544 29.4438326,6.01930544 L29.1734812,6.01930544 C29.1734812,6.01930544 29.1734812,6.01930544 29.1541757,6.01930544 L23.7856569,6 C23.4766695,6 23.2256234,6.25104603 23.2256234,6.56003347 L23.2256234,6.94626778 C23.2642343,7.31317155 23.5539163,7.50630126 23.8629038,7.50630126 L27.3968536,7.50630126 L20.9855146,13.8983096 C20.6958577,14.1879665 20.6958577,14.6707531 20.9855146,14.9604351 C21.2751715,15.2501172 21.7579582,15.2500921 22.0476402,14.9604351 Z M13.9369205,21.0048452 L7.50627615,27.3968536 L7.52558159,23.7856569 C7.52558159,23.4766695 7.293841,23.2256234 6.98487866,23.2256234 L6.57933891,23.2256234 C6.27035146,23.2256234 6.01930544,23.418728 6.01930544,23.70841 L6,29.1155649 L6,29.4052218 C6,29.5597155 6.03861088,29.6948787 6.13518828,29.7914561 C6.23176569,29.8880335 6.36692887,29.9459498 6.52142259,29.9459498 L6.79177406,29.9459498 C6.79177406,29.9459498 6.79177406,29.9459498 6.8110795,29.9459498 L12.1989038,29.9652552 C12.5078912,29.9652552 12.7589372,29.7142092 12.7589372,29.4052218 L12.7589372,29.0189874 C12.7203264,28.6520837 12.4306444,28.458954 12.1216569,28.458954 L8.58770711,28.458954 L14.999046,22.0669456 C15.2887029,21.7772887 15.2887029,21.2945021 14.999046,21.0048201 C14.7093891,20.6958326 14.2266025,20.6958326 13.9369205,21.0048201 L13.9369205,21.0048452 Z M29.9652552,29.1155649 L29.9459498,23.70841 C29.9459498,23.3994226 29.6949038,23.2256234 29.3859163,23.2256234 L28.999682,23.2256234 C28.6906946,23.2256234 28.4589791,23.4766695 28.4589791,23.7856569 L28.4782845,27.416159 L22.0476402,21.0048201 C21.7579833,20.7151632 21.2751967,20.7151632 20.9855146,21.0048201 C20.6958326,21.294477 20.6958577,21.7772636 20.9855146,22.0669456 L27.3968536,28.458954 L23.8629038,28.458954 C23.5539163,28.458954 23.2835649,28.6713891 23.2256234,29.0189874 L23.2256234,29.4052218 C23.2256234,29.7142092 23.4766695,29.9652552 23.7856569,29.9652552 L29.1541757,29.9459498 C29.1541757,29.9459498 29.1541757,29.9459498 29.1734812,29.9459498 L29.4438326,29.9459498 C29.5983264,29.9459498 29.7334895,29.8880084 29.8300669,29.7914561 C29.9266444,29.6949038 29.9652552,29.5597155 29.9652552,29.4052218 C29.9652552,29.4052218 29.9652552,29.1155649 29.9652552,29.1155649 Z M8.58770711,7.50630126 L12.1216569,7.50630126 C12.4306444,7.50630126 12.7009958,7.29386611 12.7589372,6.94626778 L12.7589372,6.56003347 C12.7589372,6.25104603 12.5078912,6 12.1989038,6 L6.8110795,6.01930544 C6.8110795,6.01930544 6.8110795,6.01930544 6.79177406,6.01930544 L6.52142259,6.01930544 C6.36692887,6.01930544 6.23176569,6.07724686 6.13518828,6.17379916 C6.03861088,6.27035146 6,6.40553975 6,6.56003347 L6,6.84969038 L6.01930544,12.2568452 C6.01930544,12.5658326 6.27035146,12.7396318 6.57933891,12.7396318 L6.98487866,12.7396318 C7.29386611,12.7396318 7.52558159,12.4885858 7.52558159,12.1795983 L7.50627615,8.56840167 L13.9369205,14.96041 C14.2265774,15.2500669 14.709364,15.2500669 14.999046,14.96041 C15.288728,14.6707531 15.2887029,14.1879665 14.999046,13.8982845 L8.58770711,7.50627615 L8.58770711,7.50630126 Z" id="Shape"></path>
        </g>
    </g>
</svg>