<?xml version="1.0" encoding="UTF-8" standalone="no"?>
<svg width="24px" height="24px" viewBox="0 0 24 24" version="1.1" xmlns="http://www.w3.org/2000/svg" xmlns:xlink="http://www.w3.org/1999/xlink">
    <!-- Generator: Sketch 48.2 (47327) - http://www.bohemiancoding.com/sketch -->
    <title>Group</title>
    <desc>Created with Sketch.</desc>
    <defs></defs>
    <g id="Page-1" stroke="none" stroke-width="1" fill="none" fill-rule="evenodd">
        <g id="Group" transform="translate(-5.000000, -6.000000)" fill="#000000" fill-rule="nonzero">
            <path d="M14.9114419,19.7887611 L14.9114165,19.7887357 C15.0113235,19.7887357 15.1112558,19.7887357 15.2111628,19.7887357 C15.3110698,19.8886427 15.3110698,19.9885751 15.3110698,20.088482 L15.3110698,28.6814968 C15.3110698,28.6814968 15.3110698,28.7814038 15.2111628,28.7814038 C15.2111628,28.8813108 15.1112558,28.7814038 15.1112558,28.7814038 L12.2136237,25.8837717 L8.31679493,29.7806004 C8.21688795,29.8805074 8.1169556,29.8805074 8.01704863,29.8805074 C7.91714165,29.8805074 7.8172093,29.8805074 7.71730233,29.7806004 L5.11941649,27.1827146 C5.01950951,27.0828076 5.01950951,26.9828753 5.01950951,26.8829683 C5.01950951,26.7830613 5.01950951,26.683129 5.11941649,26.583222 L9.01624524,22.7863002 L6.21852008,19.9885751 C6.21852008,19.9885751 6.21852008,19.9885751 6.21852008,19.8886681 C6.21852008,19.7887611 6.21852008,19.7887611 6.31842706,19.7887611 L14.9114419,19.7887611 Z M28.9999746,8.99753911 L29,8.99753911 C29,9.09744609 29,9.19737844 28.900093,9.29728541 L25.0032643,13.0942072 L27.8009894,15.8919323 C27.8009894,15.8919323 27.8009894,15.8919323 27.8009894,15.9918393 C27.8009894,16.0917463 27.8009894,16.0917463 27.7010825,16.0917463 L19.1080677,16.0917463 C19.0081607,16.0917463 18.9082283,16.0917463 18.8083214,15.9918393 C18.7084144,15.8919323 18.7084144,15.792 18.7084144,15.692093 L18.7084144,7.19901057 C18.7084144,7.19901057 18.7084144,7.09910359 18.8083214,7.09910359 L18.9082283,7.09910359 L21.8058605,9.99673573 L25.7026892,6.09990698 C25.8025962,6 25.9025285,6 26.0024355,6 C26.1023425,6 26.2022748,6 26.3021818,6.09990698 L28.9000677,8.69779281 C28.9999746,8.79769979 28.9999746,8.89763214 28.9999746,8.99753911 Z" id="Combined-Shape"></path>
        </g>
    </g>
</svg>