<?xml version="1.0" encoding="UTF-8" standalone="no"?>
<svg width="24px" height="24px" viewBox="0 0 24 24" version="1.1" xmlns="http://www.w3.org/2000/svg" xmlns:xlink="http://www.w3.org/1999/xlink">
    <!-- Generator: Sketch 48.2 (47327) - http://www.bohemiancoding.com/sketch -->
    <title>Group 2</title>
    <desc>Created with Sketch.</desc>
    <defs></defs>
    <g id="Page-1" stroke="none" stroke-width="1" fill="none" fill-rule="evenodd">
        <g id="Group-2" transform="translate(-5.000000, -6.000000)" fill="#000000" fill-rule="nonzero">
            <path d="M5,6 L5.85713281,6 L9.28571094,6 L9.28571094,7.71428906 L6.71428906,7.71428906 L6.71428906,10.2857109 L5,10.2857109 L5,6 Z M24.7142891,6 L29,6 L29,10.2857109 L27.2857109,10.2857109 L27.2857109,7.71428906 L24.7142891,7.71428906 L24.7142891,6 Z M27.2857109,28.2857109 L27.2857109,25.7142891 L29,25.7142891 L29,30 L24.7142891,30 L24.7142891,28.2857109 L27.2857109,28.2857109 Z M6.71428906,28.2857109 L8.08571094,28.2857109 L9.28571094,28.2857109 L9.28571094,30 L5,30 L5,25.7142891 L6.71428906,25.7142891 L6.71428906,28.2857109 Z M11.2571328,15.1714219 L11.2571562,15.1714453 C11.6857344,14.9142891 12.1142891,14.5714453 12.4571562,14.2285781 L13.3142891,14.2285781 L13.3142891,24 L12.2,24 L12.2,15.5142891 C11.6,16.2 10.8285781,16.6285781 9.88571094,16.8857109 L9.88571094,15.7714219 C10.3142656,15.6 10.8285547,15.4285547 11.2571328,15.1714219 Z M22.4,15.1714219 L22.4000234,15.1714453 C22.8286016,14.9142891 23.2571562,14.5714453 23.6000234,14.2285781 L24.4571562,14.2285781 L24.4571562,24 L23.3428672,24 L23.3428672,15.5142891 C22.7428672,16.2 21.9714453,16.6285781 21.0285781,16.8857109 L21.0285781,15.7714219 C21.4571328,15.6 21.9714219,15.4285547 22.4,15.1714219 Z M17,16.2857109 L18.7142891,16.2857109 L18.7142891,18 L17,18 L17,16.2857109 Z M17,20.5714219 L18.7142891,20.5714219 L18.7142891,22.2857109 L17,22.2857109 L17,20.5714219 Z" id="Combined-Shape"></path>
        </g>
    </g>
</svg>