<?xml version="1.0" encoding="UTF-8" standalone="no"?>
<svg width="24px" height="22px" viewBox="0 0 24 22" version="1.1" xmlns="http://www.w3.org/2000/svg" xmlns:xlink="http://www.w3.org/1999/xlink">
    <!-- Generator: Sketch 48.2 (47327) - http://www.bohemiancoding.com/sketch -->
    <title>Group 3</title>
    <desc>Created with Sketch.</desc>
    <defs></defs>
    <g id="Page-1" stroke="none" stroke-width="1" fill="none" fill-rule="evenodd">
        <g id="Group-3" transform="translate(-6.000000, -8.000000)" fill="#000000" fill-rule="nonzero">
            <path d="M26.8025016,22.456667 L30.0151049,17.2598299 L27.7473919,17.2598299 C26.9914796,11.9684917 22.4560537,8 16.9757375,8 C10.9284869,8 6.0151049,12.818905 6.0151049,18.8661315 C6.0151049,24.9133581 10.9284869,29.7322631 16.9757375,29.7322631 C20.755251,29.7322631 24.0623554,27.8425063 26.0465892,24.9133581 L24.3458105,23.9684677 C22.7395089,26.2361806 19.9993627,27.7479812 16.9757375,27.7479812 C11.9678784,27.7479812 7.99936272,23.7794896 7.99936272,18.7716065 C7.99936272,13.8582245 12.0623554,9.79523176 16.9757375,9.79523176 C21.4166863,9.79523176 25.1017228,13.0078351 25.8576112,17.1653048 L23.5898982,17.1653048 L26.8025016,22.456643 L26.8025016,22.456667 Z" id="Shape"></path>
        </g>
    </g>
</svg>