<?xml version="1.0" encoding="UTF-8" standalone="no"?>
<svg width="24px" height="25px" viewBox="0 0 24 25" version="1.1" xmlns="http://www.w3.org/2000/svg" xmlns:xlink="http://www.w3.org/1999/xlink">
    <!-- Generator: Sketch 48.2 (47327) - http://www.bohemiancoding.com/sketch -->
    <title>Group 5</title>
    <desc>Created with Sketch.</desc>
    <defs></defs>
    <g id="Page-1" stroke="none" stroke-width="1" fill="none" fill-rule="evenodd">
        <g id="Group-5" transform="translate(-5.000000, -6.000000)" fill="#000000" fill-rule="nonzero">
            <path d="M28.8037714,28.7088147 L28.8037714,28.7087902 C29.0925535,28.9975723 28.9963091,29.575112 28.707527,29.8638697 C28.4187449,30.1526273 27.8412052,30.1526273 27.5524476,29.8638697 L23.8947205,26.2061426 L23.509694,26.591169 C19.370696,29.8638697 13.4991034,29.8638697 9.36010542,26.591169 C4.3548101,22.7409287 3.58478159,15.425499 7.43499747,10.4202037 C11.2852134,5.41490835 18.5043987,4.548611 23.509694,8.49509572 C28.5149893,12.4415804 29.4775555,19.6607658 25.5310708,24.6660611 L25.1460443,25.0510876 L28.8037714,28.7088147 Z M16.4830464,27.5537597 C21.969637,27.5537597 26.3973926,23.1259796 26.3973926,17.6394134 C26.3973926,12.1528228 21.969637,7.72506721 16.4830464,7.72506721 C10.9964557,7.72506721 6.56870012,12.1528228 6.56870012,17.6394134 C6.56870012,23.1260041 10.9964802,27.5537597 16.4830464,27.5537597 Z M17.5418569,16.1955764 L21.7770993,16.1955764 L21.7770993,17.8319267 L17.5418569,17.8319267 L17.5418569,22.067169 L15.9055066,22.067169 L15.9055066,17.8319267 L11.6702643,17.8319267 L11.6702643,16.1955764 L15.9055066,16.1955764 L15.9055066,11.960334 L17.5418569,11.960334 L17.5418569,16.1955764 Z" id="Shape"></path>
        </g>
    </g>
</svg>