<?xml version="1.0" encoding="UTF-8" standalone="no"?>
<svg width="24px" height="25px" viewBox="0 0 24 25" version="1.1" xmlns="http://www.w3.org/2000/svg" xmlns:xlink="http://www.w3.org/1999/xlink">
    <!-- Generator: Sketch 48.2 (47327) - http://www.bohemiancoding.com/sketch -->
    <title>Group 9</title>
    <desc>Created with Sketch.</desc>
    <defs></defs>
    <g id="Page-1" stroke="none" stroke-width="1" fill="none" fill-rule="evenodd">
        <g id="Group-9" transform="translate(-5.000000, -5.000000)" fill="#000000" fill-rule="nonzero">
            <path d="M28.8037667,27.6893693 L28.8037667,27.6893449 C29.0925487,27.978127 28.9963043,28.5556667 28.7075223,28.8444243 C28.4187402,29.133182 27.8412005,29.133182 27.5524428,28.8444243 L23.8947157,25.1866972 L23.5096893,25.5717237 C19.3706913,28.8444243 13.4990986,28.8444243 9.36010066,25.5717237 C4.35480535,21.7214834 3.58477683,14.4060537 7.43499272,9.40075834 C11.2852086,4.39546302 18.5043939,3.52916567 23.5096893,7.4756504 C28.5149846,11.4221351 29.4775508,18.6413205 25.531066,23.6466158 L25.1460396,24.0316423 L28.8037667,27.6893693 Z M16.4830416,26.5343143 C21.9696322,26.5343143 26.3973878,22.1065587 26.3973878,16.6199681 C26.3973878,11.1333775 21.9696078,6.70562188 16.4830416,6.70562188 C10.996451,6.70562188 6.56869537,11.1333775 6.56869537,16.6199681 C6.56869537,22.1065587 10.9964754,26.5343143 16.4830416,26.5343143 Z M11.8627728,16.0424284 L21.007066,16.0424284 L21.007066,17.6787787 L11.8627728,17.6787787 L11.8627728,16.0424284 Z" id="Combined-Shape"></path>
        </g>
    </g>
</svg>